<?xml version="1.0" encoding="UTF-8"?>
<svg width="182px" height="166px" viewBox="0 0 182 166" version="1.1" xmlns="http://www.w3.org/2000/svg" xmlns:xlink="http://www.w3.org/1999/xlink">
    <!-- Generator: Sketch 52.6 (67491) - http://www.bohemiancoding.com/sketch -->
    <title>Group</title>
    <desc>Created with Sketch.</desc>
    <g id="el" stroke="none" stroke-width="1" fill="none" fill-rule="evenodd">
        <g id="Group" fill="#FFFFFF">
            <path d="M132.230927,14.616433 C120.826222,32.1280148 113.079509,67.3910048 113.085875,99.1414912 C113.085875,107.357142 113.836994,115.08465 114.944577,122.461969 C106.690753,132.855159 98.1844339,141.728741 90.170374,147.735016 C79.3003637,155.882752 68.4155008,156.235063 60.2762544,149.509308 C69.8074053,141.047464 78.5174175,130.425059 84.4414988,120.188923 C90.5459336,109.6408 93.5737502,101.321154 93.5716284,95.0347271 C93.5716284,91.8490667 92.7929258,89.1876289 91.2270332,87.0207006 C88.9970155,83.9369134 84.2802416,80.6663586 74.4668905,82.6932112 C65.5043835,84.5587645 57.2929957,89.8561719 50.0533949,98.4517247 C42.2451502,107.734922 38.9860567,118.034729 38.9860567,127.710562 C38.9881785,134.98813 41.3073121,141.488915 44.4645589,147.336013 C38.7950942,151.268744 33.2529379,154.015076 28.5191895,154.450159 C23.0279565,154.984994 16.0259979,153.841042 10.6429771,140.330107 L0,144.572702 C7.65335292,163.75458 20.3120453,166.751351 29.594945,165.862082 C36.3698704,165.22113 43.7877029,161.787153 51.0973233,156.744429 C63.3740907,168.527765 81.1357256,168.822773 97.0386588,156.909973 C103.690519,151.913941 110.813421,144.59817 117.929957,136.361296 C120.609798,145.275203 124.354785,152.779863 129.689004,157.412972 C139.5554,166.01277 151.721834,168.192432 164.868541,163.724867 C174.512148,160.428844 178.946722,154.679374 182,149.485962 L172.131482,143.657965 C170.086061,147.125899 167.563234,150.699952 161.170234,152.877492 C151.859751,156.039806 144.015436,154.709087 137.208683,148.774972 C132.180004,144.392301 128.937885,135.803116 126.937022,125.284706 C151.465095,93.188275 173.665547,49.4188712 173.659182,23.2098634 C173.659182,21.7836384 173.578553,20.4062276 173.44488,19.0818757 C172.383977,8.65472735 167.113412,4.08953375 162.876166,2.103006 C156.444973,-0.919232817 143.898736,-3.32174288 132.230927,14.616433 M50.56475,127.850638 C50.56475,120.517888 53.0472626,112.696996 58.8143303,105.846022 C64.3628521,99.2539763 70.4142417,95.2405959 76.7732932,93.9162441 C80.738948,93.1076254 81.8910884,93.744333 81.9377681,93.7761684 C82.0629547,94.0096279 82.1648013,94.4001419 82.1648013,95.0601954 C82.1648013,97.61976 80.7962367,103.602689 74.5369101,114.437331 C69.4466984,123.223896 61.6511845,132.706594 53.3718989,140.264314 C51.6956724,136.486515 50.5668719,132.35216 50.56475,127.850638 M124.59667,99.400419 C124.588183,70.4938933 131.138197,37.2895912 141.834219,20.8773912 C149.810087,8.62289197 155.770239,11.4201608 158.0045,12.4707283 C158.846857,12.865487 161.416364,14.0752315 162.04654,20.2555401 C162.148386,21.2148462 162.195066,22.2357008 162.197188,23.2968801 C162.19931,43.0624069 145.481603,79.0576107 125.021032,108.636924 C124.861896,105.565871 124.59667,102.598814 124.59667,99.400419" id="Fill-957"></path>
            <path d="M81.9424184,44.1494777 C78.410143,52.0103368 78.0388829,66.8463549 78.0006961,68.5051478 C77.9540234,71.487077 80.2600794,73.9449489 83.1771236,73.999087 C86.0814389,74.0532252 88.4893263,71.6928019 88.5466065,68.7303625 C88.627223,64.8194226 89.3018557,53.5738465 91.5209308,48.6169577 C92.7322997,45.92954 91.565482,42.7245616 88.932717,41.4880463 C86.2829802,40.2536965 83.1495443,41.4404047 81.9424184,44.1494777" id="Fill-958"></path>
            <path d="M52.3553502,37.9004476 C49.9160056,39.5381558 49.2637974,42.807208 50.9071905,45.2213427 C54.7496409,50.8345239 58.3625311,66.9549185 59.4330966,72.6847758 C59.9544341,75.5422797 62.741337,77.4430394 65.6355109,76.9105721 C68.5361212,76.3823476 70.447692,73.6393985 69.9091911,70.7691664 C69.4801067,68.4483726 65.5153673,47.7691245 59.7570553,39.323896 C58.1179531,36.9161255 54.7925493,36.2712249 52.3553502,37.9004476" id="Fill-959"></path>
            <path d="M32.4447185,63.1279046 C31.2706931,65.7743864 32.5022479,68.8336606 35.1848215,69.9798408 C38.1784799,71.2685076 42.0414711,78.627529 43.6778623,83.4322658 C44.6004631,86.1646587 47.5962522,87.6398156 50.3725774,86.7325103 C53.1403797,85.8168234 54.6467971,82.8853682 53.7327192,80.1571661 C52.8314256,77.5106843 47.9414285,64.0938809 39.4100347,60.4332288 C36.7295919,59.2912394 33.6016982,60.4814228 32.4447185,63.1279046" id="Fill-960"></path>
        </g>
    </g>
</svg>